name C:\Users\u0101727\Documents\MyRepositories\paper-ad\predictivesimulations_2d/Results/PredSim_2D/IK_c11.mot
datacolumns 11
datarows 21
range 0.63318635 0.82506100
endheader
time	pelvis_tilt	pelvis_tx	pelvis_ty	hip_flexion_l	hip_flexion_r	knee_angle_l	knee_angle_r	ankle_angle_l	ankle_angle_r	lumbar_extension	
          0.63318635	        -15.08729544	          0.85496663	          0.89984545	         25.73021438	         11.40556582	        -10.65738258	        -40.88876209	          8.49983304	         -0.30840811	         10.34815474	
          0.64278008	        -15.10438248	          0.86693940	          0.90128272	         24.81148113	         12.67842482	        -10.41051414	        -41.78533689	          8.60244298	          0.66764390	         10.30981188	
          0.65237381	        -15.11898734	          0.87885636	          0.90247636	         23.87747206	         13.98373357	        -10.13880122	        -42.57402406	          8.74583505	          1.72365486	         10.26748041	
          0.66196755	        -15.13109641	          0.89072511	          0.90342966	         22.93261170	         15.31648429	         -9.85002175	        -43.24664102	          8.92413945	          2.84196191	         10.22148032	
          0.67156128	        -15.14083468	          0.90255297	          0.90415324	         21.98078755	         16.67068487	         -9.55122783	        -43.79567682	          9.13085377	          4.00475834	         10.17228971	
          0.68115501	        -15.14836427	          0.91434615	          0.90466410	         21.02618946	         18.04052310	         -9.25000373	        -44.21344132	          9.35829625	          5.19420326	         10.12033412	
          0.69074874	        -15.15382688	          0.92611020	          0.90498300	         20.07338751	         19.42050664	         -8.95419651	        -44.49212142	          9.59843070	          6.39248060	         10.06595607	
          0.70034248	        -15.15736861	          0.93785109	          0.90513137	         19.12718332	         20.80413943	         -8.67218669	        -44.62477679	          9.84332104	          7.58179737	         10.00953514	
          0.70993621	        -15.15920973	          0.94957587	          0.90512950	         18.19081314	         22.18451320	         -8.40959211	        -44.60575521	         10.08564523	          8.74448455	          9.95160347	
          0.71952994	        -15.15966713	          0.96129286	          0.90499547	         17.26508456	         23.55474144	         -8.16768579	        -44.43100395	         10.31876963	          9.86317539	          9.89290284	
          0.72912367	        -15.15902273	          0.97301088	          0.90474480	         16.35140700	         24.90690280	         -7.94928737	        -44.09857387	         10.53590570	         10.92112937	          9.83417094	
          0.73871741	        -15.15752141	          0.98473809	          0.90439057	         15.45192827	         26.23306004	         -7.75799322	        -43.60745435	         10.73098014	         11.90290367	          9.77602498	
          0.74831114	        -15.15540466	          0.99648355	          0.90394347	         14.56821816	         27.52441166	         -7.59680897	        -42.96067456	         10.89936529	         12.79509694	          9.71919932	
          0.75790487	        -15.15292977	          1.00825576	          0.90341256	         13.70121605	         28.77289401	         -7.46782913	        -42.16285135	         11.03809979	         13.58747105	          9.66439065	
          0.76749860	        -15.15036049	          1.02006127	          0.90280592	         12.85179602	         29.97237962	         -7.37212008	        -41.21823956	         11.14605139	         14.27394469	          9.61207722	
          0.77709234	        -15.14793597	          1.03190639	          0.90213004	         12.02065609	         31.11714782	         -7.31133222	        -40.13356383	         11.22394606	         14.85291508	          9.56270253	
          0.78668607	        -15.14587764	          1.04379549	          0.90139026	         11.20811785	         32.20423330	         -7.28638803	        -38.91435117	         11.27459799	         15.32720330	          9.51645812	
          0.79627980	        -15.14439716	          1.05573218	          0.90059035	         10.41407422	         33.23228832	         -7.29768910	        -37.56558235	         11.30246421	         15.70308557	          9.47340797	
          0.80587353	        -15.14371363	          1.06771982	          0.89973223	          9.63827523	         34.20071812	         -7.34524962	        -36.09266220	         11.31286575	         15.98892658	          9.43353150	
          0.81546727	        -15.14410966	          1.07976292	          0.89881603	          8.88010587	         35.10802593	         -7.42849787	        -34.50308356	         11.31106532	         16.19386745	          9.39690429	
          0.82506100	        -15.14597619	          1.09186799	          0.89784061	          8.13851918	         35.95073347	         -7.54637888	        -32.80456988	         11.30065500	         16.32702632	          9.36383592	
